<svg width="20" height="26" viewBox="0 0 20 26" fill="none" xmlns="http://www.w3.org/2000/svg">
<path d="M4.17007 17.2763L1.12988 22.548L4.90506 21.3999L6.24141 25.3946L9.89966 19.1712L13.5913 25.2013L14.7272 21.6576L18.8699 22.4308L15.8381 17.2763" fill="#00A3FF"/>
<path d="M12.245 1.43625C15.9496 2.46197 18.6694 5.85782 18.6694 9.88891C18.6694 14.7323 14.743 18.6587 9.89966 18.6587C5.0562 18.6587 1.12988 14.7323 1.12988 9.88891C1.12988 5.73154 4.02267 2.24995 7.90516 1.34698" stroke="#B9D1FF" stroke-miterlimit="10" stroke-linecap="round"/>
<path d="M16.9968 9.79271C16.9968 13.649 13.8707 16.7751 10.0144 16.7751C6.1581 16.7751 3.03198 13.649 3.03198 9.79271C3.03198 5.93642 6.1581 2.8103 10.0144 2.8103C13.8707 2.8103 16.9968 5.93642 16.9968 9.79271Z" stroke="#B9D1FF" stroke-miterlimit="10"/>
<path d="M5.85616 8.5398L8.67185 8.22703C8.6979 8.22416 8.72049 8.20785 8.73158 8.18413L9.91699 5.63879C9.94365 5.5816 10.0246 5.58086 10.0524 5.63752L11.3016 8.1856C11.3129 8.20845 11.3349 8.22409 11.3602 8.2271L14.0098 8.54013C14.0691 8.54715 14.0969 8.61711 14.0585 8.66281L12.211 10.8678C12.1966 10.885 12.1906 10.9077 12.1947 10.9298L12.6918 13.6015C12.7037 13.6656 12.634 13.7134 12.5786 13.6792L10.0558 12.1218C10.0318 12.107 10.0015 12.1069 9.97746 12.1215L7.40532 13.6828C7.35033 13.7161 7.28158 13.6694 7.2924 13.606L7.77202 10.7982C7.77603 10.775 7.76888 10.7513 7.75277 10.7341L5.80973 8.66575C5.76743 8.62072 5.79469 8.54662 5.85616 8.5398Z" stroke="#00A3FF" stroke-miterlimit="10"/>
<path d="M10.4501 1.07313C10.4501 1.33144 10.2407 1.54085 9.98237 1.54085C9.72405 1.54085 9.51465 1.33144 9.51465 1.07313C9.51465 0.814813 9.72405 0.605408 9.98237 0.605408C10.2407 0.605408 10.4501 0.814813 10.4501 1.07313Z" fill="#00A3FF"/>
</svg>
