<svg width="24" height="22" viewBox="0 0 24 22" fill="none" xmlns="http://www.w3.org/2000/svg">
<g id="Group">
<g id="Group_2">
<g id="Mask group">
<mask id="mask0_3982_2388" style="mask-type:luminance" maskUnits="userSpaceOnUse" x="6" y="0" width="18" height="22">
<g id="Group_3">
<path id="Vector" d="M22.9895 0.515625H7.07376C6.51566 0.515625 6.06323 0.968053 6.06323 1.52615V20.4735C6.06323 21.0316 6.51566 21.484 7.07376 21.484H22.9895C23.5476 21.484 24.0001 21.0316 24.0001 20.4735V1.52615C24.0001 0.968053 23.5476 0.515625 22.9895 0.515625Z" fill="white"/>
</g>
</mask>
<g mask="url(#mask0_3982_2388)">
<g id="Group_4">
<path id="Vector_2" d="M15.0317 5.69434H6.06323V10.9996H15.0317V5.69434Z" fill="url(#paint0_linear_3982_2388)"/>
</g>
</g>
</g>
<g id="Mask group_2">
<mask id="mask1_3982_2388" style="mask-type:luminance" maskUnits="userSpaceOnUse" x="6" y="0" width="18" height="22">
<g id="Group_5">
<path id="Vector_3" d="M22.9895 0.515625H7.07376C6.51566 0.515625 6.06323 0.968053 6.06323 1.52615V20.4735C6.06323 21.0316 6.51566 21.484 7.07376 21.484H22.9895C23.5476 21.484 24.0001 21.0316 24.0001 20.4735V1.52615C24.0001 0.968053 23.5476 0.515625 22.9895 0.515625Z" fill="white"/>
</g>
</mask>
<g mask="url(#mask1_3982_2388)">
<g id="Group_6">
<path id="Vector_4" d="M24.0002 5.69434H15.0317V10.9996H24.0002V5.69434Z" fill="url(#paint1_linear_3982_2388)"/>
</g>
</g>
</g>
<g id="Mask group_3">
<mask id="mask2_3982_2388" style="mask-type:luminance" maskUnits="userSpaceOnUse" x="6" y="0" width="18" height="22">
<g id="Group_7">
<path id="Vector_5" d="M22.9895 0.515625H7.07376C6.51566 0.515625 6.06323 0.968053 6.06323 1.52615V20.4735C6.06323 21.0316 6.51566 21.484 7.07376 21.484H22.9895C23.5476 21.484 24.0001 21.0316 24.0001 20.4735V1.52615C24.0001 0.968053 23.5476 0.515625 22.9895 0.515625Z" fill="white"/>
</g>
</mask>
<g mask="url(#mask2_3982_2388)">
<g id="Group_8">
<path id="Vector_6" d="M15.0317 0.389648H6.06323V5.69491H15.0317V0.389648Z" fill="url(#paint2_linear_3982_2388)"/>
</g>
</g>
</g>
<g id="Mask group_4">
<mask id="mask3_3982_2388" style="mask-type:luminance" maskUnits="userSpaceOnUse" x="6" y="0" width="18" height="22">
<g id="Group_9">
<path id="Vector_7" d="M22.9895 0.515625H7.07376C6.51566 0.515625 6.06323 0.968053 6.06323 1.52615V20.4735C6.06323 21.0316 6.51566 21.484 7.07376 21.484H22.9895C23.5476 21.484 24.0001 21.0316 24.0001 20.4735V1.52615C24.0001 0.968053 23.5476 0.515625 22.9895 0.515625Z" fill="white"/>
</g>
</mask>
<g mask="url(#mask3_3982_2388)">
<g id="Group_10">
<path id="Vector_8" d="M24.0002 0.389648H15.0317V5.69491H24.0002V0.389648Z" fill="url(#paint3_linear_3982_2388)"/>
</g>
</g>
</g>
<g id="Mask group_5">
<mask id="mask4_3982_2388" style="mask-type:luminance" maskUnits="userSpaceOnUse" x="6" y="0" width="18" height="22">
<g id="Group_11">
<path id="Vector_9" d="M22.9895 0.515625H7.07376C6.51566 0.515625 6.06323 0.968053 6.06323 1.52615V20.4735C6.06323 21.0316 6.51566 21.484 7.07376 21.484H22.9895C23.5476 21.484 24.0001 21.0316 24.0001 20.4735V1.52615C24.0001 0.968053 23.5476 0.515625 22.9895 0.515625Z" fill="white"/>
</g>
</mask>
<g mask="url(#mask4_3982_2388)">
<g id="Group_12">
<path id="Vector_10" d="M15.0317 11H6.06323V16.3053H15.0317V11Z" fill="url(#paint4_linear_3982_2388)"/>
</g>
</g>
</g>
<g id="Mask group_6">
<mask id="mask5_3982_2388" style="mask-type:luminance" maskUnits="userSpaceOnUse" x="6" y="0" width="18" height="22">
<g id="Group_13">
<path id="Vector_11" d="M22.9895 0.515625H7.07376C6.51566 0.515625 6.06323 0.968053 6.06323 1.52615V20.4735C6.06323 21.0316 6.51566 21.484 7.07376 21.484H22.9895C23.5476 21.484 24.0001 21.0316 24.0001 20.4735V1.52615C24.0001 0.968053 23.5476 0.515625 22.9895 0.515625Z" fill="white"/>
</g>
</mask>
<g mask="url(#mask5_3982_2388)">
<g id="Group_14">
<path id="Vector_12" d="M24.0002 11H15.0317V16.3053H24.0002V11Z" fill="url(#paint5_linear_3982_2388)"/>
</g>
</g>
</g>
<g id="Mask group_7">
<mask id="mask6_3982_2388" style="mask-type:luminance" maskUnits="userSpaceOnUse" x="6" y="0" width="18" height="22">
<g id="Group_15">
<path id="Vector_13" d="M22.9895 0.515625H7.07376C6.51566 0.515625 6.06323 0.968053 6.06323 1.52615V20.4735C6.06323 21.0316 6.51566 21.484 7.07376 21.484H22.9895C23.5476 21.484 24.0001 21.0316 24.0001 20.4735V1.52615C24.0001 0.968053 23.5476 0.515625 22.9895 0.515625Z" fill="white"/>
</g>
</mask>
<g mask="url(#mask6_3982_2388)">
<g id="Group_16">
<path id="Vector_14" d="M15.0317 16.3047H6.06323V21.61H15.0317V16.3047Z" fill="url(#paint6_linear_3982_2388)"/>
</g>
</g>
</g>
<g id="Mask group_8">
<mask id="mask7_3982_2388" style="mask-type:luminance" maskUnits="userSpaceOnUse" x="6" y="0" width="18" height="22">
<g id="Group_17">
<path id="Vector_15" d="M22.9895 0.515625H7.07376C6.51566 0.515625 6.06323 0.968053 6.06323 1.52615V20.4735C6.06323 21.0316 6.51566 21.484 7.07376 21.484H22.9895C23.5476 21.484 24.0001 21.0316 24.0001 20.4735V1.52615C24.0001 0.968053 23.5476 0.515625 22.9895 0.515625Z" fill="white"/>
</g>
</mask>
<g mask="url(#mask7_3982_2388)">
<g id="Group_18">
<path id="Vector_16" d="M24.0002 16.3047H15.0317V21.61H24.0002V16.3047Z" fill="url(#paint7_linear_3982_2388)"/>
</g>
</g>
</g>
</g>
<g id="Group_19">
<g id="Mask group_9">
<mask id="mask8_3982_2388" style="mask-type:luminance" maskUnits="userSpaceOnUse" x="6" y="0" width="18" height="22">
<g id="Group_20">
<path id="Vector_17" d="M22.9895 0.515625H7.07376C6.51566 0.515625 6.06323 0.968053 6.06323 1.52615V20.4735C6.06323 21.0316 6.51566 21.484 7.07376 21.484H22.9895C23.5476 21.484 24.0001 21.0316 24.0001 20.4735V1.52615C24.0001 0.968053 23.5476 0.515625 22.9895 0.515625Z" fill="white"/>
</g>
</mask>
<g mask="url(#mask8_3982_2388)">
<g id="Vector_18" filter="url(#filter0_f_3982_2388)">
<path fill-rule="evenodd" clip-rule="evenodd" d="M1.0105 5.18945H11.1158C11.6739 5.18945 12.1263 5.64188 12.1263 6.19998V16.3052C12.1263 16.8633 10.4107 18.5789 9.85261 18.5789H-0.252657C-0.810756 18.5789 -1.26318 18.1265 -1.26318 17.5684V7.46314C-1.26318 6.90504 0.452402 5.18945 1.0105 5.18945Z" fill="black" fill-opacity="0.1"/>
</g>
</g>
</g>
</g>
<g id="Group_21">
<path id="Vector_19" d="M11.1158 4.93652H1.01053C0.452428 4.93652 0 5.38895 0 5.94705V16.0523C0 16.6104 0.452428 17.0628 1.01053 17.0628H11.1158C11.6739 17.0628 12.1263 16.6104 12.1263 16.0523V5.94705C12.1263 5.38895 11.6739 4.93652 11.1158 4.93652Z" fill="url(#paint8_linear_3982_2388)"/>
<path id="Vector_20" d="M11.1158 4.93652H1.01053C0.452428 4.93652 0 5.38895 0 5.94705V16.0523C0 16.6104 0.452428 17.0628 1.01053 17.0628H11.1158C11.6739 17.0628 12.1263 16.6104 12.1263 16.0523V5.94705C12.1263 5.38895 11.6739 4.93652 11.1158 4.93652Z" fill="url(#paint9_radial_3982_2388)"/>
<g id="Mask group_10">
<mask id="mask9_3982_2388" style="mask-type:luminance" maskUnits="userSpaceOnUse" x="0" y="4" width="13" height="14">
<g id="Group_22">
<path id="Vector_21" d="M11.1158 4.93652H1.01053C0.452428 4.93652 0 5.38895 0 5.94705V16.0523C0 16.6104 0.452428 17.0628 1.01053 17.0628H11.1158C11.6739 17.0628 12.1263 16.6104 12.1263 16.0523V5.94705C12.1263 5.38895 11.6739 4.93652 11.1158 4.93652Z" fill="white"/>
</g>
</mask>
<g mask="url(#mask9_3982_2388)">
<g id="Group_23">
<path id="Vector_22" d="M3.15796 14.1711L5.27451 10.8683L3.35653 7.8418H4.81825L6.06032 10.128L7.27712 7.8418H8.72621L6.79964 10.9158L8.91632 14.1711H7.40811L6.03505 11.7295L4.65771 14.1711H3.15796Z" fill="url(#paint10_linear_3982_2388)"/>
</g>
</g>
</g>
</g>
</g>
<defs>
<filter id="filter0_f_3982_2388" x="-4.26318" y="2.18945" width="19.3894" height="19.3896" filterUnits="userSpaceOnUse" color-interpolation-filters="sRGB">
<feFlood flood-opacity="0" result="BackgroundImageFix"/>
<feBlend mode="normal" in="SourceGraphic" in2="BackgroundImageFix" result="shape"/>
<feGaussianBlur stdDeviation="1.5" result="effect1_foregroundBlur_3982_2388"/>
</filter>
<linearGradient id="paint0_linear_3982_2388" x1="62.5105" y1="5.69434" x2="500.595" y2="795.012" gradientUnits="userSpaceOnUse">
<stop stop-color="#007438"/>
<stop offset="0.9734" stop-color="#008B44"/>
</linearGradient>
<linearGradient id="paint1_linear_3982_2388" x1="978.832" y1="577.766" x2="522.413" y2="-244.583" gradientUnits="userSpaceOnUse">
<stop stop-color="#00D576"/>
<stop offset="0.97026" stop-color="#00A054"/>
</linearGradient>
<linearGradient id="paint2_linear_3982_2388" x1="62.5105" y1="0.38966" x2="518.929" y2="822.738" gradientUnits="userSpaceOnUse">
<stop stop-color="#007E42"/>
<stop offset="0.95983" stop-color="#009A50"/>
</linearGradient>
<linearGradient id="paint3_linear_3982_2388" x1="71.479" y1="0.38966" x2="527.898" y2="822.738" gradientUnits="userSpaceOnUse">
<stop stop-color="#00AD61"/>
<stop offset="1" stop-color="#00E18C"/>
</linearGradient>
<linearGradient id="paint4_linear_3982_2388" x1="969.864" y1="583.072" x2="527.019" y2="-214.819" gradientUnits="userSpaceOnUse">
<stop stop-color="#003D20"/>
<stop offset="1" stop-color="#004F2A"/>
</linearGradient>
<linearGradient id="paint5_linear_3982_2388" x1="978.832" y1="583.072" x2="535.988" y2="-214.819" gradientUnits="userSpaceOnUse">
<stop stop-color="#00C165"/>
<stop offset="1" stop-color="#008D46"/>
</linearGradient>
<linearGradient id="paint6_linear_3982_2388" x1="969.864" y1="588.377" x2="527.019" y2="-209.515" gradientUnits="userSpaceOnUse">
<stop stop-color="#00522E"/>
<stop offset="1" stop-color="#003B20"/>
</linearGradient>
<linearGradient id="paint7_linear_3982_2388" x1="978.832" y1="588.377" x2="535.988" y2="-209.515" gradientUnits="userSpaceOnUse">
<stop stop-color="#006D3D"/>
<stop offset="1" stop-color="#004C29"/>
</linearGradient>
<linearGradient id="paint8_linear_3982_2388" x1="1372.42" y1="1274.23" x2="26.0837" y2="122.719" gradientUnits="userSpaceOnUse">
<stop stop-color="#008034"/>
<stop offset="1" stop-color="#004F21"/>
</linearGradient>
<radialGradient id="paint9_radial_3982_2388" cx="0" cy="0" r="1" gradientUnits="userSpaceOnUse" gradientTransform="translate(1050.15 1026.09) scale(756.658)">
<stop stop-color="#018137"/>
<stop offset="1" stop-color="#007E35" stop-opacity="0"/>
</radialGradient>
<linearGradient id="paint10_linear_3982_2388" x1="172.845" y1="324.307" x2="567.264" y2="324.307" gradientUnits="userSpaceOnUse">
<stop stop-color="#F0F0F0"/>
<stop offset="1" stop-color="white"/>
</linearGradient>
</defs>
</svg>
