<svg width="14" height="15" viewBox="0 0 14 15" fill="none" xmlns="http://www.w3.org/2000/svg">
<path d="M12.3461 8.08811L11.8881 7.88752L12.3461 8.08811ZM2.11229 7.11264C2.93672 5.23025 4.81562 3.91675 7.00018 3.91675V2.91675C4.40431 2.91675 2.1743 4.47842 1.19629 6.71146L2.11229 7.11264ZM7.00018 3.91675C9.18475 3.91675 11.0636 5.23026 11.8881 7.11264L12.8041 6.71146C11.8261 4.47842 9.59606 2.91675 7.00018 2.91675V3.91675ZM11.8881 7.88752C11.0636 9.76991 9.18475 11.0834 7.00018 11.0834V12.0834C9.59606 12.0834 11.8261 10.5217 12.8041 8.28871L11.8881 7.88752ZM7.00018 11.0834C4.81562 11.0834 2.93672 9.76991 2.11229 7.88752L1.19629 8.2887C2.1743 10.5217 4.40431 12.0834 7.00018 12.0834V11.0834ZM11.8881 7.11264C11.9961 7.35936 11.9961 7.64081 11.8881 7.88752L12.8041 8.28871C13.0241 7.78626 13.0241 7.2139 12.8041 6.71146L11.8881 7.11264ZM1.19629 6.71146C0.976236 7.2139 0.976236 7.78626 1.19629 8.2887L2.11229 7.88752C2.00424 7.64081 2.00424 7.35935 2.11229 7.11264L1.19629 6.71146Z" fill="#9C9C9C"/>
<circle cx="7" cy="7.5" r="1.75" stroke="#9C9C9C" stroke-linecap="round" stroke-linejoin="round"/>
</svg>
