<svg width="21" height="18" viewBox="0 0 21 18" fill="none" xmlns="http://www.w3.org/2000/svg">
<path fill-rule="evenodd" clip-rule="evenodd" d="M17.4641 1.74991e-06C17.4491 2.58438e-06 17.4342 3.41884e-06 17.4192 3.41884e-06L3.72344 1.74991e-06C3.24042 -2.67411e-05 2.81038 -5.17759e-05 2.47148 0.0297994C2.14766 0.0583219 1.68052 0.126268 1.29871 0.435119C0.831439 0.813104 0.571237 1.38325 0.595281 1.97644C0.614929 2.46115 0.874732 2.84751 1.06895 3.10295C1.27223 3.3703 1.55899 3.68425 1.8811 4.0369L7.15897 9.8159C7.19446 9.85476 7.22167 9.88456 7.24501 9.91055C7.25613 9.92295 7.2653 9.93328 7.27292 9.94198C7.27316 9.95344 7.27336 9.96712 7.2735 9.98363C7.2738 10.0182 7.27381 10.0582 7.27381 10.1104V14.9281C7.27381 14.9372 7.27367 14.9481 7.27352 14.9606C7.272 15.082 7.26853 15.359 7.36721 15.6181C7.44973 15.8348 7.58395 16.0291 7.75868 16.1846C7.96761 16.3706 8.23141 16.4703 8.34703 16.514C8.359 16.5186 8.36938 16.5225 8.37795 16.5258L11.5049 17.7512C11.5138 17.7547 11.5228 17.7582 11.5319 17.7618C11.6766 17.8186 11.8422 17.8836 11.9893 17.9266C12.1483 17.973 12.4194 18.037 12.7343 17.9729C13.1164 17.8951 13.4516 17.6728 13.6672 17.3542C13.8449 17.0915 13.8849 16.8212 13.8999 16.6593C13.9138 16.5095 13.9138 16.3347 13.9137 16.1819C13.9137 16.1724 13.9137 16.1629 13.9137 16.1535V10.1104C13.9137 10.0582 13.9137 10.0182 13.914 9.98363C13.9141 9.96712 13.9143 9.95344 13.9146 9.94198C13.9222 9.93328 13.9314 9.92295 13.9425 9.91055C13.9658 9.88456 13.993 9.85476 14.0285 9.8159L19.2765 4.06967C19.2865 4.0587 19.2965 4.04778 19.3064 4.03689C19.6285 3.68425 19.9153 3.37029 20.1185 3.10295C20.3128 2.84751 20.5726 2.46114 20.5922 1.97644C20.6163 1.38325 20.3561 0.813104 19.8888 0.435119C19.507 0.126268 19.0398 0.0583219 18.716 0.0297994C18.3771 -5.17759e-05 17.9471 -2.67411e-05 17.4641 1.74991e-06ZM18.3987 2.01253C18.2569 2.18558 18.0528 2.41006 17.7551 2.73608L12.5072 8.48231C12.4978 8.4926 12.488 8.50325 12.4779 8.51426C12.3708 8.63083 12.227 8.78739 12.12 8.97425C12.0275 9.13592 11.9597 9.30997 11.9186 9.49088C11.8711 9.69998 11.8717 9.91061 11.8721 10.0674C11.8722 10.0822 11.8722 10.0966 11.8722 10.1104V15.7411L9.31527 14.7391V10.1104C9.31527 10.0966 9.31531 10.0822 9.31535 10.0674C9.31581 9.91061 9.31643 9.69998 9.26893 9.49088C9.22784 9.30997 9.15996 9.13592 9.06746 8.97425C8.96054 8.78739 8.81671 8.63082 8.70964 8.51425C8.69953 8.50325 8.68974 8.4926 8.68035 8.48231L3.43241 2.73608C3.13466 2.41006 2.93056 2.18558 2.78876 2.01253C3.01496 2.00067 3.3218 2 3.76834 2H17.4192C17.8657 2 18.1725 2.00067 18.3987 2.01253ZM12.579 16.0117L12.5774 16.0113L12.579 16.0117Z" fill="#7A7A7A"/>
</svg>
