<svg width="18" height="18" viewBox="0 0 18 18" fill="none" xmlns="http://www.w3.org/2000/svg">
<path d="M8.99984 7.33334C9.46008 7.33334 9.83317 7.70643 9.83317 8.16667V13.1667C9.83317 13.6269 9.46007 14 8.99984 14C8.5396 14 8.1665 13.6269 8.1665 13.1667V8.16667C8.1665 7.70643 8.5396 7.33334 8.99984 7.33334Z" fill="#8F8F8F"/>
<path d="M8.99984 5.66667C9.46008 5.66667 9.83317 5.29358 9.83317 4.83334C9.83317 4.3731 9.46008 4.00001 8.99984 4.00001C8.5396 4.00001 8.1665 4.3731 8.1665 4.83334C8.1665 5.29358 8.5396 5.66667 8.99984 5.66667Z" fill="#8F8F8F"/>
<path fill-rule="evenodd" clip-rule="evenodd" d="M8.99984 17.3333C13.6022 17.3333 17.3332 13.6024 17.3332 9.00001C17.3332 4.39763 13.6022 0.666672 8.99984 0.666672C4.39746 0.666672 0.666504 4.39763 0.666504 9.00001C0.666504 13.6024 4.39746 17.3333 8.99984 17.3333ZM8.99984 15.6667C12.6817 15.6667 15.6665 12.6819 15.6665 9.00001C15.6665 5.31811 12.6817 2.33334 8.99984 2.33334C5.31794 2.33334 2.33317 5.31811 2.33317 9.00001C2.33317 12.6819 5.31794 15.6667 8.99984 15.6667Z" fill="#8F8F8F"/>
</svg>
