<svg width="20" height="20" viewBox="0 0 20 20" fill="none" xmlns="http://www.w3.org/2000/svg">
<path fill-rule="evenodd" clip-rule="evenodd" d="M4.83128 2.10064C4.56597 1.96645 4.25265 1.96645 3.98733 2.10065C3.8899 2.14993 3.76551 2.25654 3.19578 2.82627L3.04327 2.97878C2.50029 3.52176 2.3579 3.67516 2.24377 3.87833C2.11116 4.1144 1.9992 4.54495 2 4.81571C2.00072 5.05648 2.03564 5.20038 2.19569 5.76426C2.98328 8.53912 4.46901 11.1578 6.65563 13.3444C8.84224 15.531 11.4609 17.0167 14.2357 17.8043C14.7996 17.9644 14.9435 17.9993 15.1843 18C15.4551 18.0008 15.8856 17.8888 16.1217 17.7562C16.3248 17.6421 16.4782 17.4997 17.0212 16.9567L17.1737 16.8042C17.7435 16.2345 17.8501 16.1101 17.8994 16.0127C18.0335 15.7474 18.0335 15.434 17.8994 15.1687C17.8501 15.0713 17.7435 14.9469 17.1737 14.3772L16.9852 14.1886C16.6109 13.8143 16.5298 13.741 16.4698 13.702C16.1599 13.5005 15.7605 13.5005 15.4506 13.702C15.3906 13.741 15.3095 13.8143 14.9352 14.1886C14.9278 14.196 14.9202 14.2036 14.9124 14.2115C14.8259 14.2983 14.7141 14.4106 14.5798 14.5068C14.1005 14.8499 13.4496 14.9609 12.8837 14.796C12.7259 14.7499 12.5958 14.6872 12.4967 14.6394C12.4887 14.6356 12.481 14.6319 12.4735 14.6283C10.9707 13.9067 9.56322 12.9235 8.31985 11.6802C7.07647 10.4368 6.09326 9.0293 5.37174 7.52652C5.36812 7.51898 5.36439 7.51125 5.36057 7.50332C5.31275 7.40415 5.25007 7.27415 5.20405 7.11628C5.03908 6.55037 5.15007 5.89951 5.49324 5.42025C5.58942 5.28592 5.70165 5.17412 5.78854 5.08756C5.79636 5.07977 5.80398 5.07218 5.81136 5.0648C6.1857 4.69046 6.25898 4.60943 6.298 4.54942C6.49947 4.23954 6.49947 3.84006 6.298 3.53019C6.25898 3.47017 6.18569 3.38913 5.81136 3.0148L5.62283 2.82627C5.0531 2.25654 4.92871 2.14993 4.83128 2.10064ZM3.08464 0.315947C3.91751 -0.105316 4.9011 -0.105316 5.73397 0.315947C6.15739 0.53011 6.52446 0.89817 6.94319 1.31803C6.97417 1.3491 7.00545 1.38046 7.03705 1.41206L7.22557 1.60059C7.2464 1.62141 7.26705 1.64202 7.2875 1.66244C7.56383 1.93828 7.80519 2.17921 7.97475 2.44C8.60722 3.41277 8.60722 4.66683 7.97475 5.6396C7.80519 5.90039 7.56383 6.14132 7.2875 6.41716C7.26705 6.43758 7.2464 6.45819 7.22557 6.47901C7.19726 6.50733 7.17561 6.52899 7.15695 6.54789C7.14716 6.55782 7.13923 6.56593 7.13273 6.57267C7.13474 6.577 7.13703 6.58191 7.13965 6.58747C7.14888 6.6071 7.15975 6.62975 7.1747 6.66087C7.79987 7.96298 8.65248 9.18436 9.73406 10.2659C10.8156 11.3475 12.037 12.2001 13.3391 12.8253C13.3703 12.8403 13.3929 12.8511 13.4125 12.8604C13.4181 12.863 13.423 12.8653 13.4273 12.8673C13.4341 12.8608 13.4422 12.8528 13.4521 12.843C13.471 12.8244 13.4927 12.8027 13.521 12.7744C13.5418 12.7536 13.5624 12.733 13.5828 12.7125C13.8587 12.4362 14.0996 12.1948 14.3604 12.0252C15.3332 11.3928 16.5872 11.3928 17.56 12.0252C17.8208 12.1948 18.0617 12.4362 18.3376 12.7125C18.358 12.733 18.3786 12.7536 18.3994 12.7744L18.5879 12.963C18.6195 12.9946 18.6509 13.0258 18.682 13.0568C19.1018 13.4755 19.4699 13.8426 19.6841 14.266C20.1053 15.0989 20.1053 16.0825 19.6841 16.9154C19.4699 17.3388 19.1018 17.7058 18.682 18.1246C18.6509 18.1556 18.6195 18.1868 18.5879 18.2184L18.4354 18.3709C18.4129 18.3935 18.3907 18.4157 18.3687 18.4378C17.9198 18.8871 17.5716 19.2357 17.1012 19.4999C16.5642 19.8016 15.7942 20.0018 15.1783 20C14.6399 19.9984 14.2466 19.8866 13.7453 19.7441C13.7269 19.7389 13.7084 19.7336 13.6896 19.7283C10.5951 18.85 7.67534 17.1925 5.24141 14.7586C2.80749 12.3247 1.15 9.40487 0.271687 6.31036C0.266378 6.29165 0.261106 6.27311 0.255877 6.25471C0.113392 5.75341 0.00161552 5.36014 1.33514e-05 4.82166C-0.00181961 4.2058 0.198435 3.43575 0.500061 2.89881C0.764309 2.42841 1.11289 2.0802 1.56224 1.63133C1.58427 1.60933 1.60654 1.58708 1.62906 1.56456L1.78156 1.41206C1.81316 1.38046 1.84443 1.3491 1.87543 1.31803C2.29416 0.89817 2.66122 0.53011 3.08464 0.315947Z" fill="#13121B"/>
</svg>
