<svg width="24" height="25" viewBox="0 0 24 25" fill="none" xmlns="http://www.w3.org/2000/svg">
<path d="M14 5.78988H13.5C13.5 6.01109 13.6454 6.20601 13.8574 6.26911L14 5.78988ZM15.3302 6.34137L15.092 6.78097C15.2865 6.8864 15.5273 6.8514 15.6837 6.69492L15.3302 6.34137ZM16.2426 5.42891L15.8891 5.07536L15.8891 5.07536L16.2426 5.42891ZM17.6569 5.42891L17.3033 5.78246V5.78246L17.6569 5.42891ZM19.0711 6.84312L19.4246 6.48957V6.48957L19.0711 6.84312ZM19.0711 8.25734L18.7175 7.90378L19.0711 8.25734ZM18.1586 9.16978L17.8051 8.81623C17.6486 8.97271 17.6136 9.21344 17.719 9.408L18.1586 9.16978ZM18.7101 10.5L18.2309 10.6426C18.294 10.8546 18.4889 11 18.7101 11V10.5ZM18.7101 14.5V14C18.4889 14 18.294 14.1454 18.2309 14.3574L18.7101 14.5ZM18.1586 15.8302L17.719 15.592C17.6136 15.7866 17.6486 16.0273 17.8051 16.1838L18.1586 15.8302ZM19.0711 16.7427L19.4246 16.3891V16.3891L19.0711 16.7427ZM19.0711 18.1569L18.7175 17.8033L18.7175 17.8033L19.0711 18.1569ZM17.6569 19.5711L18.0104 19.9246L17.6569 19.5711ZM15.3302 18.6586L15.6837 18.3051C15.5273 18.1486 15.2865 18.1136 15.092 18.219L15.3302 18.6586ZM14 19.2101L13.8574 18.7309C13.6454 18.794 13.5 18.9889 13.5 19.2101H14ZM10 19.2101H10.5C10.5 18.9889 10.3547 18.794 10.1426 18.7309L10 19.2101ZM8.6698 18.6586L8.90801 18.219C8.71345 18.1136 8.47272 18.1486 8.31624 18.3051L8.6698 18.6586ZM7.75736 19.571L7.40381 19.2175L7.40381 19.2175L7.75736 19.571ZM6.34315 19.571L5.9896 19.9246H5.9896L6.34315 19.571ZM4.92894 18.1568L4.57538 18.5104L4.57538 18.5104L4.92894 18.1568ZM4.92894 16.7426L4.57538 16.3891L4.57538 16.3891L4.92894 16.7426ZM5.84138 15.8302L6.19493 16.1837C6.35141 16.0272 6.38642 15.7865 6.28099 15.592L5.84138 15.8302ZM5.28989 14.5L5.76912 14.3574C5.70602 14.1454 5.5111 14 5.28989 14V14.5ZM5.28989 10.5V11C5.5111 11 5.70602 10.8546 5.76912 10.6426L5.28989 10.5ZM5.84138 9.16982L6.28099 9.40804C6.38642 9.21347 6.35141 8.97275 6.19494 8.81627L5.84138 9.16982ZM4.92894 8.25738L4.57539 8.61093L4.92894 8.25738ZM4.92894 6.84317L5.28249 7.19672V7.19672L4.92894 6.84317ZM6.34315 5.42895L6.69671 5.78251H6.69671L6.34315 5.42895ZM7.75737 5.42895L8.11092 5.0754L7.75737 5.42895ZM8.6698 6.34139L8.31625 6.69494C8.47273 6.85142 8.71345 6.88643 8.90802 6.78099L8.6698 6.34139ZM10 5.78988L10.1426 6.26911C10.3547 6.20601 10.5 6.01109 10.5 5.78988H10ZM11 3C10.1716 3 9.50002 3.67157 9.50002 4.5H10.5C10.5 4.22386 10.7239 4 11 4V3ZM13 3H11V4H13V3ZM14.5 4.5C14.5 3.67157 13.8284 3 13 3V4C13.2762 4 13.5 4.22386 13.5 4.5H14.5ZM14.5 5.78988V4.5H13.5V5.78988H14.5ZM15.5684 5.90176C15.119 5.65822 14.6417 5.45918 14.1426 5.31065L13.8574 6.26911C14.2894 6.39767 14.7026 6.56999 15.092 6.78097L15.5684 5.90176ZM15.8891 5.07536L14.9766 5.98781L15.6837 6.69492L16.5962 5.78246L15.8891 5.07536ZM18.0104 5.07536C17.4246 4.48957 16.4749 4.48957 15.8891 5.07536L16.5962 5.78246C16.7915 5.5872 17.108 5.5872 17.3033 5.78246L18.0104 5.07536ZM19.4246 6.48957L18.0104 5.07536L17.3033 5.78246L18.7175 7.19668L19.4246 6.48957ZM19.4246 8.61089C20.0104 8.0251 20.0104 7.07536 19.4246 6.48957L18.7175 7.19668C18.9128 7.39194 18.9128 7.70852 18.7175 7.90378L19.4246 8.61089ZM18.5122 9.52334L19.4246 8.61089L18.7175 7.90378L17.8051 8.81623L18.5122 9.52334ZM19.1894 10.3574C19.0408 9.85828 18.8418 9.38103 18.5982 8.93157L17.719 9.408C17.93 9.79738 18.1023 10.2106 18.2309 10.6426L19.1894 10.3574ZM18.7101 11H20V10H18.7101V11ZM20 11C20.2761 11 20.5 11.2239 20.5 11.5H21.5C21.5 10.6716 20.8284 10 20 10V11ZM20.5 11.5V13.5H21.5V11.5H20.5ZM20.5 13.5C20.5 13.7761 20.2761 14 20 14V15C20.8284 15 21.5 14.3284 21.5 13.5H20.5ZM20 14H18.7101V15H20V14ZM18.5982 16.0684C18.8418 15.619 19.0408 15.1417 19.1894 14.6426L18.2309 14.3574C18.1023 14.7894 17.93 15.2026 17.719 15.592L18.5982 16.0684ZM19.4246 16.3891L18.5122 15.4767L17.8051 16.1838L18.7175 17.0962L19.4246 16.3891ZM19.4246 18.5104C20.0104 17.9246 20.0104 16.9749 19.4246 16.3891L18.7175 17.0962C18.9128 17.2915 18.9128 17.6081 18.7175 17.8033L19.4246 18.5104ZM18.0104 19.9246L19.4246 18.5104L18.7175 17.8033L17.3033 19.2175L18.0104 19.9246ZM15.8891 19.9246C16.4749 20.5104 17.4246 20.5104 18.0104 19.9246L17.3033 19.2175C17.108 19.4128 16.7915 19.4128 16.5962 19.2175L15.8891 19.9246ZM14.9766 19.0122L15.8891 19.9246L16.5962 19.2175L15.6837 18.3051L14.9766 19.0122ZM14.1426 19.6893C14.6417 19.5408 15.119 19.3418 15.5684 19.0982L15.092 18.219C14.7026 18.43 14.2894 18.6023 13.8574 18.7309L14.1426 19.6893ZM14.5 20.5V19.2101H13.5V20.5H14.5ZM13 22C13.8284 22 14.5 21.3284 14.5 20.5H13.5C13.5 20.7761 13.2762 21 13 21V22ZM11 22H13V21H11V22ZM9.50002 20.5C9.50002 21.3284 10.1716 22 11 22V21C10.7239 21 10.5 20.7761 10.5 20.5H9.50002ZM9.50002 19.2101V20.5H10.5V19.2101H9.50002ZM8.43158 19.0982C8.88104 19.3418 9.3583 19.5408 9.85739 19.6893L10.1426 18.7309C9.71064 18.6023 9.29739 18.43 8.90801 18.219L8.43158 19.0982ZM8.11092 19.9246L9.02335 19.0122L8.31624 18.3051L7.40381 19.2175L8.11092 19.9246ZM5.9896 19.9246C6.57538 20.5104 7.52513 20.5104 8.11092 19.9246L7.40381 19.2175C7.20855 19.4128 6.89197 19.4128 6.6967 19.2175L5.9896 19.9246ZM4.57538 18.5104L5.9896 19.9246L6.6967 19.2175L5.28249 17.8033L4.57538 18.5104ZM4.57538 16.3891C3.9896 16.9749 3.9896 17.9246 4.57538 18.5104L5.28249 17.8033C5.08723 17.608 5.08723 17.2914 5.28249 17.0962L4.57538 16.3891ZM5.48783 15.4766L4.57538 16.3891L5.28249 17.0962L6.19493 16.1837L5.48783 15.4766ZM4.81067 14.6426C4.9592 15.1417 5.15823 15.6189 5.40177 16.0684L6.28099 15.592C6.07 15.2026 5.89769 14.7894 5.76912 14.3574L4.81067 14.6426ZM5.28989 14H4V15H5.28989V14ZM4 14C3.72386 14 3.5 13.7761 3.5 13.5H2.5C2.5 14.3284 3.17157 15 4 15V14ZM3.5 13.5V11.5H2.5V13.5H3.5ZM3.5 11.5C3.5 11.2239 3.72386 11 4 11V10C3.17157 10 2.5 10.6716 2.5 11.5H3.5ZM4 11H5.28989V10H4V11ZM5.40178 8.93161C5.15823 9.38106 4.9592 9.8583 4.81067 10.3574L5.76912 10.6426C5.89769 10.2106 6.07 9.7974 6.28099 9.40804L5.40178 8.93161ZM4.57539 8.61093L5.48783 9.52338L6.19494 8.81627L5.28249 7.90383L4.57539 8.61093ZM4.57539 6.48961C3.9896 7.0754 3.9896 8.02515 4.57539 8.61093L5.28249 7.90383C5.08723 7.70856 5.08723 7.39198 5.28249 7.19672L4.57539 6.48961ZM5.9896 5.0754L4.57539 6.48961L5.28249 7.19672L6.69671 5.78251L5.9896 5.0754ZM8.11092 5.0754C7.52514 4.48961 6.57539 4.48961 5.9896 5.0754L6.69671 5.78251C6.89197 5.58724 7.20855 5.58724 7.40381 5.78251L8.11092 5.0754ZM9.02336 5.98783L8.11092 5.0754L7.40381 5.78251L8.31625 6.69494L9.02336 5.98783ZM9.85739 5.31065C9.3583 5.45919 8.88105 5.65823 8.43159 5.90178L8.90802 6.78099C9.2974 6.57 9.71064 6.39767 10.1426 6.26911L9.85739 5.31065ZM9.50002 4.5V5.78988H10.5V4.5H9.50002Z" fill="#9C9C9C"/>
<circle cx="12" cy="12.5" r="3" stroke="#9C9C9C" stroke-linecap="round" stroke-linejoin="round"/>
</svg>
