<svg width="32" height="32" viewBox="0 0 32 32" fill="none" xmlns="http://www.w3.org/2000/svg">
<g clip-path="url(#clip0_4079_10241)">
<path d="M16 20C18.2091 20 20 18.2091 20 16C20 13.7909 18.2091 12 16 12C13.7909 12 12 13.7909 12 16C12 18.2091 13.7909 20 16 20Z" stroke="#909090" stroke-width="2" stroke-linecap="round" stroke-linejoin="round"/>
<path d="M25.8667 19.9999C25.6892 20.4021 25.6363 20.8482 25.7147 21.2807C25.7931 21.7132 25.9993 22.1123 26.3067 22.4266L26.3867 22.5066C26.6346 22.7542 26.8313 23.0483 26.9655 23.3721C27.0997 23.6958 27.1688 24.0428 27.1688 24.3933C27.1688 24.7437 27.0997 25.0907 26.9655 25.4144C26.8313 25.7382 26.6346 26.0323 26.3867 26.2799C26.139 26.5279 25.8449 26.7245 25.5212 26.8587C25.1975 26.9929 24.8505 27.062 24.5 27.062C24.1496 27.062 23.8026 26.9929 23.4789 26.8587C23.1551 26.7245 22.861 26.5279 22.6134 26.2799L22.5334 26.1999C22.2191 25.8925 21.82 25.6863 21.3875 25.6079C20.955 25.5295 20.5089 25.5824 20.1067 25.7599C19.7123 25.9289 19.376 26.2096 19.1391 26.5673C18.9022 26.925 18.7751 27.3442 18.7734 27.7733V27.9999C18.7734 28.7072 18.4924 29.3854 17.9923 29.8855C17.4922 30.3856 16.814 30.6666 16.1067 30.6666C15.3995 30.6666 14.7212 30.3856 14.2211 29.8855C13.721 29.3854 13.44 28.7072 13.44 27.9999V27.8799C13.4297 27.4386 13.2869 27.0106 13.0301 26.6515C12.7732 26.2925 12.4144 26.019 12 25.8666C11.5979 25.6891 11.1518 25.6362 10.7193 25.7146C10.2867 25.793 9.88761 25.9992 9.57337 26.3066L9.49337 26.3866C9.24571 26.6345 8.95161 26.8312 8.62788 26.9654C8.30415 27.0996 7.95715 27.1687 7.60671 27.1687C7.25627 27.1687 6.90926 27.0996 6.58553 26.9654C6.2618 26.8312 5.9677 26.6345 5.72004 26.3866C5.4721 26.1389 5.27541 25.8448 5.14121 25.5211C5.00702 25.1974 4.93794 24.8504 4.93794 24.4999C4.93794 24.1495 5.00702 23.8025 5.14121 23.4787C5.27541 23.155 5.4721 22.8609 5.72004 22.6132L5.80004 22.5333C6.10742 22.219 6.31362 21.8199 6.39205 21.3874C6.47047 20.9548 6.41753 20.5087 6.24004 20.1066C6.07102 19.7122 5.79038 19.3759 5.43266 19.139C5.07494 18.9021 4.65576 18.775 4.22671 18.7733H4.00004C3.2928 18.7733 2.61452 18.4923 2.11442 17.9922C1.61433 17.4921 1.33337 16.8138 1.33337 16.1066C1.33337 15.3993 1.61433 14.7211 2.11442 14.221C2.61452 13.7209 3.2928 13.4399 4.00004 13.4399H4.12004C4.56137 13.4296 4.98938 13.2867 5.34844 13.0299C5.7075 12.7731 5.98099 12.4142 6.13337 11.9999C6.31086 11.5978 6.3638 11.1517 6.28538 10.7191C6.20695 10.2866 6.00076 9.88749 5.69337 9.57325L5.61337 9.49325C5.36544 9.24559 5.16875 8.95149 5.03455 8.62776C4.90035 8.30403 4.83128 7.95703 4.83128 7.60658C4.83128 7.25614 4.90035 6.90914 5.03455 6.58541C5.16875 6.26168 5.36544 5.96758 5.61337 5.71992C5.86104 5.47198 6.15514 5.27529 6.47887 5.14109C6.80259 5.00689 7.1496 4.93782 7.50004 4.93782C7.85048 4.93782 8.19749 5.00689 8.52121 5.14109C8.84494 5.27529 9.13905 5.47198 9.38671 5.71992L9.46671 5.79992C9.78095 6.1073 10.1801 6.3135 10.6126 6.39192C11.0451 6.47035 11.4912 6.41741 11.8934 6.23992H12C12.3944 6.0709 12.7307 5.79026 12.9676 5.43254C13.2045 5.07482 13.3317 4.65563 13.3334 4.22659V3.99992C13.3334 3.29267 13.6143 2.6144 14.1144 2.1143C14.6145 1.6142 15.2928 1.33325 16 1.33325C16.7073 1.33325 17.3856 1.6142 17.8857 2.1143C18.3858 2.6144 18.6667 3.29267 18.6667 3.99992V4.11992C18.6684 4.54897 18.7955 4.96815 19.0324 5.32587C19.2694 5.68359 19.6057 5.96423 20 6.13325C20.4022 6.31074 20.8483 6.36368 21.2808 6.28526C21.7134 6.20683 22.1125 6.00063 22.4267 5.69325L22.5067 5.61325C22.7544 5.36531 23.0485 5.16862 23.3722 5.03443C23.6959 4.90023 24.0429 4.83115 24.3934 4.83115C24.7438 4.83115 25.0908 4.90023 25.4145 5.03443C25.7383 5.16862 26.0324 5.36531 26.28 5.61325C26.528 5.86091 26.7247 6.15502 26.8589 6.47874C26.9931 6.80247 27.0621 7.14948 27.0621 7.49992C27.0621 7.85036 26.9931 8.19736 26.8589 8.52109C26.7247 8.84482 26.528 9.13892 26.28 9.38658L26.2 9.46658C25.8927 9.78082 25.6865 10.1799 25.608 10.6125C25.5296 11.045 25.5826 11.4911 25.76 11.8933V11.9999C25.9291 12.3943 26.2097 12.7306 26.5674 12.9675C26.9251 13.2044 27.3443 13.3315 27.7734 13.3333H28C28.7073 13.3333 29.3856 13.6142 29.8857 14.1143C30.3858 14.6144 30.6667 15.2927 30.6667 15.9999C30.6667 16.7072 30.3858 17.3854 29.8857 17.8855C29.3856 18.3856 28.7073 18.6666 28 18.6666H27.88C27.451 18.6683 27.0318 18.7954 26.6741 19.0323C26.3164 19.2692 26.0357 19.6056 25.8667 19.9999V19.9999Z" stroke="#909090" stroke-width="2" stroke-linecap="round" stroke-linejoin="round"/>
</g>
<defs>
<clipPath id="clip0_4079_10241">
<rect width="32" height="32" fill="white"/>
</clipPath>
</defs>
</svg>
